<svg width="264" height="73" viewBox="0 0 264 73" fill="none" xmlns="http://www.w3.org/2000/svg">
<g clip-path="url(#clip0_21_34)">
<path d="M56.0989 47.9777H65.8695C68.5322 47.9777 70.4266 48.787 71.5528 50.4055C72.2129 51.3629 72.5448 52.4685 72.5448 53.7185C72.5448 55.1812 72.1383 56.378 71.3216 57.3164C70.9002 57.8103 70.2886 58.2625 69.4943 58.6728C70.6615 59.1249 71.5342 59.634 72.1122 60.2039C73.134 61.2145 73.6449 62.6089 73.6449 64.3832C73.6449 65.8763 73.1862 67.2289 72.2651 68.437C70.8928 70.2455 68.7074 71.1497 65.7166 71.1497H56.0989V47.9777ZM64.7246 57.7762C66.0261 57.7762 67.0367 57.5938 67.7602 57.2253C68.8939 56.6478 69.4645 55.6067 69.4645 54.1022C69.4645 52.5863 68.8603 51.5681 67.6521 51.04C66.9696 50.7474 65.959 50.5992 64.6165 50.5992H59.1196V57.7762H64.7246ZM65.7613 68.4712C67.6521 68.4712 68.9983 67.9127 69.8038 66.7995C70.311 66.0967 70.5646 65.2418 70.5646 64.2426C70.5646 62.5595 69.8262 61.4121 68.3494 60.8042C67.5663 60.4775 66.5258 60.3141 65.2355 60.3141H59.1196V68.4712H65.7613Z" fill="black"/>
<path d="M77.251 47.9777H87.0216C89.6843 47.9777 91.5787 48.787 92.7049 50.4055C93.365 51.3629 93.6969 52.4685 93.6969 53.7185C93.6969 55.1812 93.2904 56.378 92.4737 57.3164C92.0523 57.8103 91.4407 58.2625 90.6464 58.6728C91.8137 59.1249 92.6863 59.634 93.2643 60.2039C94.2861 61.2145 94.797 62.6089 94.797 64.3832C94.797 65.8763 94.3383 67.2289 93.4172 68.437C92.0449 70.2455 89.8595 71.1497 86.8687 71.1497H77.251V47.9777ZM85.8767 57.7762C87.1782 57.7762 88.1888 57.5938 88.9123 57.2253C90.046 56.6478 90.6166 55.6067 90.6166 54.1022C90.6166 52.5863 90.0124 51.5681 88.8042 51.04C88.1217 50.7474 87.1111 50.5992 85.7686 50.5992H80.2717V57.7762H85.8767ZM86.9134 68.4712C88.8042 68.4712 90.1504 67.9127 90.9559 66.7995C91.4631 66.0967 91.7167 65.2418 91.7167 64.2426C91.7167 62.5595 90.9783 61.4121 89.5015 60.8042C88.7184 60.4775 87.6779 60.3141 86.3876 60.3141H80.2717V68.4712H86.9134Z" fill="black"/>
<path d="M119.291 71.0889L117.743 72.9962L114.227 70.2683C113.38 70.7432 112.463 71.1193 111.478 71.4043C110.494 71.6892 109.416 71.8298 108.249 71.8298C104.717 71.8298 101.95 70.652 99.9473 68.2964C98.1834 66.0017 97.2996 63.1332 97.2996 59.6834C97.2996 56.549 98.064 53.8667 99.5893 51.6365C101.551 48.7756 104.452 47.347 108.293 47.347C112.31 47.347 115.282 48.6616 117.214 51.2907C118.72 53.3424 119.474 55.9677 119.474 59.1629C119.474 60.656 119.291 62.0922 118.933 63.4713C118.385 65.5761 117.46 67.2896 116.162 68.6156L119.291 71.0889ZM110.419 68.8891C110.975 68.8018 111.463 68.6232 111.873 68.361L109.379 66.374L110.926 64.4325L113.898 66.7843C114.838 65.6901 115.476 64.4667 115.811 63.1104C116.147 61.754 116.315 60.4547 116.315 59.2123C116.315 56.4882 115.614 54.296 114.215 52.6357C112.817 50.9754 110.904 50.1433 108.48 50.1433C106.022 50.1433 104.076 50.9412 102.644 52.5331C101.208 54.125 100.492 56.5794 100.492 59.8924C100.492 62.6811 101.182 64.8999 102.558 66.5488C103.938 68.2015 105.955 69.0259 108.622 69.0259C109.263 69.0221 109.863 68.9765 110.419 68.8891Z" fill="black"/>
<path d="M134.133 55.4244C133.809 54.6569 133.645 53.9161 133.645 53.198C133.645 51.7049 134.141 50.4663 135.133 49.4823C136.125 48.4983 137.448 48.0081 139.112 48.0081C140.693 48.0081 141.923 48.4641 142.811 49.3797C143.699 50.2953 144.142 51.3895 144.142 52.6623C144.142 54.144 143.684 55.4434 142.763 56.5604C142.226 57.2139 141.327 57.9661 140.066 58.8172L144.217 63.8665C144.497 63.0268 144.691 62.3961 144.799 61.982C144.907 61.5679 145.019 60.9866 145.131 60.2381H147.778C147.603 61.7199 147.253 63.1446 146.727 64.5047C146.201 65.8649 145.936 66.4158 145.936 66.1536L149.979 71.1535H146.387L144.251 68.5016C143.404 69.4362 142.628 70.1201 141.927 70.5532C140.7 71.3093 139.283 71.6892 137.683 71.6892C135.319 71.6892 133.6 71.0396 132.526 69.7402C131.452 68.4408 130.915 66.9781 130.915 65.3482C130.915 63.5929 131.437 62.1264 132.477 60.9486C133.119 60.2343 134.308 59.3377 136.054 58.2663C135.103 57.1379 134.458 56.1919 134.133 55.4244ZM140.846 68.3914C141.67 67.8557 142.308 67.2554 142.751 66.5944L137.609 60.2039C136.154 61.1918 135.203 61.9516 134.76 62.4759C134.077 63.2662 133.738 64.2274 133.738 65.3634C133.738 66.5944 134.178 67.5404 135.062 68.2015C135.946 68.8626 136.885 69.1969 137.888 69.1969C139.037 69.1969 140.022 68.9271 140.846 68.3914ZM140.629 55.2648C141.237 54.5506 141.543 53.7565 141.543 52.8827C141.543 52.1988 141.319 51.6099 140.876 51.116C140.432 50.6221 139.831 50.3751 139.078 50.3751C137.933 50.3751 137.139 50.7626 136.695 51.5415C136.468 51.9404 136.356 52.3774 136.356 52.8523C136.356 53.4943 136.527 54.1098 136.874 54.6987C137.221 55.2876 137.795 56.0513 138.601 56.9859C139.582 56.2792 140.26 55.7093 140.629 55.2648Z" fill="black"/>
<path d="M161.923 47.9777H164.929V59.2731L176.016 47.9777H180.275L170.814 57.3164L180.54 71.1535H176.531L168.573 59.5276L164.933 63.0762V71.1535H161.927V47.9777H161.923Z" fill="black"/>
<path d="M183.37 47.9777H199.954V50.8158H186.372V57.8521H198.929V60.5345H186.372V68.3914H200.185V71.1535H183.37V47.9777Z" fill="black"/>
<path d="M204.15 47.9777H213.92C216.583 47.9777 218.477 48.787 219.603 50.4055C220.264 51.3629 220.595 52.4685 220.595 53.7185C220.595 55.1812 220.189 56.378 219.372 57.3164C218.951 57.8103 218.339 58.2625 217.545 58.6728C218.712 59.1249 219.585 59.634 220.163 60.2039C221.185 61.2145 221.696 62.6089 221.696 64.3832C221.696 65.8763 221.237 67.2289 220.316 68.437C218.943 70.2455 216.758 71.1497 213.767 71.1497H204.15V47.9777ZM212.775 57.7762C214.077 57.7762 215.087 57.5938 215.811 57.2253C216.945 56.6478 217.515 55.6067 217.515 54.1022C217.515 52.5863 216.911 51.5681 215.703 51.04C215.02 50.7474 214.01 50.5992 212.667 50.5992H207.17V57.7762H212.775ZM213.812 68.4712C215.703 68.4712 217.049 67.9127 217.854 66.7995C218.362 66.0967 218.615 65.2418 218.615 64.2426C218.615 62.5595 217.877 61.4121 216.4 60.8042C215.617 60.4775 214.576 60.3141 213.286 60.3141H207.17V68.4712H213.812Z" fill="black"/>
<path d="M231.992 47.9777H235.475L243.728 71.1535H240.353L238.045 64.2122H229.05L226.588 71.1535H223.43L231.992 47.9777ZM237.056 61.6553L233.603 51.4161L229.933 61.6553H237.056Z" fill="black"/>
<path d="M246.454 47.9777H256.225C258.887 47.9777 260.782 48.787 261.908 50.4055C262.568 51.3629 262.9 52.4685 262.9 53.7185C262.9 55.1812 262.493 56.378 261.677 57.3164C261.255 57.8103 260.644 58.2625 259.849 58.6728C261.017 59.1249 261.889 59.634 262.467 60.2039C263.489 61.2145 264 62.6089 264 64.3832C264 65.8763 263.541 67.2289 262.62 68.437C261.248 70.2455 259.062 71.1497 256.072 71.1497H246.454V47.9777ZM255.08 57.7762C256.381 57.7762 257.392 57.5938 258.115 57.2253C259.249 56.6478 259.82 55.6067 259.82 54.1022C259.82 52.5863 259.215 51.5681 258.007 51.04C257.325 50.7474 256.314 50.5992 254.972 50.5992H249.475V57.7762H255.08ZM256.116 68.4712C258.007 68.4712 259.353 67.9127 260.159 66.7995C260.666 66.0967 260.92 65.2418 260.92 64.2426C260.92 62.5595 260.181 61.4121 258.704 60.8042C257.921 60.4775 256.881 60.3141 255.591 60.3141H249.475V68.4712H256.116Z" fill="black"/>
<path d="M0.939856 44.296C-0.324355 48.5854 -0.432503 52.89 1.3538 57.0199C4.35583 63.9536 10.1548 67.8897 16.5243 71.0963C17.1434 71.4079 17.7736 72.2665 18.87 71.6434C18.2696 70.8228 17.6692 70.0515 17.1247 69.2423C14.876 65.9065 12.8473 62.5327 12.4632 58.304C11.9001 52.077 14.4807 46.8757 17.1844 41.663C19.7949 36.629 23.4458 32.2901 26.28 27.3928C29.4163 21.975 30.2927 16.6446 27.4845 10.6948C25.8213 7.16528 23.4421 4.11823 21.8273 0.600069C21.6781 0.273328 21.4618 -0.155995 21.0106 0.0529674C20.5967 0.242933 20.7346 0.721646 20.7607 1.07118C21.0442 5.27322 19.3213 8.93576 17.7773 12.6401C16.1626 16.5154 14.0854 20.1551 12.0082 23.7759C10.7142 26.0327 8.23797 29.9004 7.13039 31.6177C6.74255 32.2142 6.392 32.8296 6.06382 33.4641C4.78097 35.9679 1.46941 42.5065 0.939856 44.296Z" fill="#5378BC"/>
<path d="M28.5959 68.1559C28.6146 62.1416 31.4227 57.3886 35.2825 53.1828C38.5493 49.6228 41.0031 45.5955 42.6663 41.044C43.4569 38.8784 43.6098 36.6102 43.7851 34.342C43.8261 33.7949 43.5949 32.9856 44.2065 32.8147C44.9822 32.5981 45.0754 33.5251 45.3626 34.019C48.8308 39.965 47.4211 45.8235 44.9412 51.6099C42.946 56.264 39.0975 59.3833 35.715 62.8824C33.6826 64.9872 31.3779 66.8641 30.1324 69.6566C29.972 70.0175 29.6961 70.5038 29.1553 70.3671C28.6258 70.2341 28.6258 69.7326 28.6034 69.2919C28.581 68.9157 28.5959 68.5358 28.5959 68.1559Z" fill="#109548"/>
<path d="M32.4445 44.1974C32.3103 44.452 32.1574 44.6951 31.9858 44.9269C29.752 47.9929 27.4287 50.9868 25.5268 54.3036C24.311 56.4236 23.5577 58.669 23.0767 61.0512C22.9312 61.7806 21.9989 61.9668 21.5775 61.3589C19.5451 58.4296 19.381 53.6881 21.4507 50.2953C21.7826 49.752 22.0064 49.1555 22.2413 48.5628C22.26 48.5134 22.2861 48.464 22.3159 48.4184C26.8357 41.044 33.0785 34.5661 34.4397 25.4326C34.5702 24.5626 35.7449 24.4334 36.0432 25.2578L36.0507 25.2806C38.1913 31.1278 36.6213 36.4506 33.8355 41.6025C33.3694 42.4687 32.9069 43.3312 32.4445 44.1974Z" fill="#EC2125"/>
</g>
<defs>
<clipPath id="clip0_21_34">
<rect width="264" height="73" fill="white"/>
</clipPath>
</defs>
</svg>
