<svg width="15" height="15" viewBox="0 0 15 15" fill="none" xmlns="http://www.w3.org/2000/svg">
<path d="M0.940311 15C8.93812 15.0112 15.0084 8.86874 15 0.940311C15 0.421874 14.58 0 14.0625 0H11.5875C11.1234 0 10.7287 0.34125 10.6603 0.800624C10.4971 1.90224 10.1766 2.97473 9.70874 3.98531L9.61218 4.19343C9.54732 4.33349 9.53336 4.49179 9.57273 4.64103C9.61209 4.79027 9.7023 4.92109 9.82781 5.01093C10.5947 5.55843 10.8872 6.65999 10.29 7.51874C9.53813 8.59999 8.59974 9.5387 7.51875 10.2909C6.65906 10.8872 5.5575 10.5947 5.01093 9.82874C4.92118 9.70286 4.79025 9.61231 4.6408 9.57276C4.49134 9.53322 4.33276 9.54716 4.1925 9.61218L3.98531 9.7078C2.97469 10.1766 1.90219 10.4972 0.800624 10.6603C0.341249 10.7287 0 11.1234 0 11.5884V14.0625C0 14.1857 0.0242796 14.3077 0.0714521 14.4215C0.118625 14.5353 0.187764 14.6387 0.274919 14.7257C0.362073 14.8128 0.465532 14.8818 0.579383 14.9289C0.693234 14.9759 0.815243 15.0001 0.938437 15H0.940311Z" fill="#16A036"/>
</svg>
