<svg width="101" height="119" viewBox="0 0 101 119" fill="none" xmlns="http://www.w3.org/2000/svg">
<g clip-path="url(#clip0_90_81)">
<path d="M88.1217 39.2096V24.8615H95.5265C96.8819 24.8615 97.9947 23.7447 97.9947 22.3846V12.4769C97.9947 11.1167 96.8819 10 95.5265 10H21.4683C20.1128 10 19 11.1167 19 12.4769V22.3846C19 23.7447 20.1128 24.8615 21.4683 24.8615H28.873V39.2043C28.873 50.9484 36.3305 61.3536 47.4377 65.069L42.844 67.6464C34.2262 72.452 28.873 81.5658 28.873 91.4523V104.139H21.4683C20.1128 104.139 19 105.255 19 106.615V116.523C19 117.883 20.1128 119 21.4683 119H95.5265C96.8819 119 97.9947 117.883 97.9947 116.523V106.615C97.9947 105.255 96.8819 104.139 95.5265 104.139H88.1217V91.4523C88.1217 81.5658 82.7633 72.452 74.1507 67.6464L69.5571 65.069C80.6642 61.3536 88.1217 50.9484 88.1217 39.2043V39.2096ZM23.9365 19.9076V14.9538H93.0635V19.9076H23.9365ZM36.0563 48.9426C34.6006 45.9681 33.8095 42.6762 33.8095 39.2043V24.8615H83.1852V39.2043C83.1852 42.7979 82.3466 46.2169 80.8172 49.2601C80.6695 49.2601 80.5218 49.2125 80.3741 49.2336C76.5715 49.7523 72.7215 49.7523 68.9453 49.2336C65.0214 48.6885 62.2314 47.72 59.5153 46.7832C56.0344 45.5712 52.7539 44.4545 48.2604 44.7244C44.1625 44.9731 40.0646 46.4339 36.0668 48.9373L36.0563 48.9426ZM33.8095 97.8933C37.7123 94.8237 46.4251 89.2718 58.4974 89.2718C62.7166 89.2718 73.4071 90.1397 83.1852 97.9198V104.139H33.8148V97.8933H33.8095ZM93.0582 109.092V114.046H23.9365V109.092H93.0582ZM68.0012 60.3639L62.6428 62.1475C61.7304 62.4703 61.0658 63.2854 60.9656 64.2804C60.8918 65.2489 61.3875 66.1857 62.2261 66.6567L71.7563 71.981C78.8183 75.8975 83.1852 83.3759 83.1852 91.4523V91.7751C73.0854 85.1118 62.8168 84.3179 58.4974 84.3179C47.5115 84.3179 38.9939 88.4303 33.8095 91.8016V91.4523C33.8095 83.3759 38.1764 75.8975 45.2384 71.981L54.7686 66.6567C55.6072 66.1857 56.1029 65.2436 56.0291 64.2804C55.9289 63.2907 55.2644 62.4703 54.352 62.1475L48.9935 60.3639C44.8218 58.9772 41.2934 56.3998 38.6722 53.129C41.979 51.0702 45.2859 49.8846 48.5452 49.6623C52.0736 49.4665 54.642 50.3292 57.9014 51.4724C60.6914 52.4409 63.8769 53.5312 68.2438 54.1504C70.3693 54.4468 72.4894 54.595 74.636 54.595C75.4534 54.595 76.292 54.5474 77.1306 54.5209C74.6623 57.1195 71.5506 59.1783 67.9959 60.3639H68.0012Z" fill="url(#paint0_linear_90_81)"/>
</g>
<defs>
<linearGradient id="paint0_linear_90_81" x1="19" y1="64.5" x2="97.9947" y2="64.5" gradientUnits="userSpaceOnUse">
<stop stop-color="#FFCB05"/>
<stop offset="0.25" stop-color="#EF4123"/>
<stop offset="0.5" stop-color="#812990"/>
<stop offset="0.75" stop-color="#2484C6"/>
<stop offset="1" stop-color="#00AE4D"/>
</linearGradient>
<clipPath id="clip0_90_81">
<rect width="79" height="109" fill="white" transform="translate(19 10)"/>
</clipPath>
</defs>
</svg>
