<svg width="101" height="100" viewBox="0 0 101 100" fill="none" xmlns="http://www.w3.org/2000/svg">
<path d="M50.5 0C37.2402 0 24.5245 5.26961 15.1471 14.6471C5.76961 24.0196 0.5 36.7402 0.5 50C0.779412 82.6961 25.6422 100 50.5 100C75.3578 100 100.25 82.6667 100.5 50C100.5 36.7402 95.2304 24.0196 85.8529 14.6422C76.4804 5.26961 63.7598 0 50.5 0ZM25.2255 86.5C27.25 79.049 32.4608 72.8726 39.4608 69.6177C46.4608 66.3627 54.5441 66.3627 61.5441 69.6177C68.5441 72.8726 73.7549 79.049 75.7794 86.5C68.3627 91.6716 59.5392 94.4412 50.5 94.4412C41.4608 94.4412 32.6373 91.6716 25.2206 86.5H25.2255ZM34.9461 46.0833C34.9461 41.9559 36.5833 38 39.5 35.0833C42.4167 32.1667 46.3725 30.5294 50.5 30.5294C54.6275 30.5294 58.5833 32.1667 61.5 35.0833C64.4167 38 66.0539 41.9559 66.0539 46.0833C66.0539 50.2108 64.4167 54.1667 61.5 57.0833C58.5833 60 54.6275 61.6422 50.5 61.6422C46.3725 61.6422 42.4167 60.0049 39.5 57.0833C36.5833 54.1667 34.9461 50.2108 34.9461 46.0833ZM80.4167 82.7794C78.8627 78.4951 76.4118 74.5931 73.2255 71.3382C70.0392 68.0784 66.1912 65.5392 61.9461 63.8922C67.0882 60.5735 70.5392 55.1912 71.402 49.1324C72.2647 43.0735 70.4608 36.9412 66.451 32.3186C62.4412 27.6961 56.6226 25.0392 50.5049 25.0392C44.3873 25.0392 38.5686 27.6961 34.5588 32.3186C30.549 36.9412 28.7402 43.0735 29.6078 49.1324C30.4706 55.1912 33.9216 60.5735 39.0637 63.8922C34.8137 65.5392 30.9706 68.0784 27.7843 71.3382C24.598 74.598 22.1471 78.5 20.5931 82.7794C13.9608 76.7451 9.30882 68.8431 7.25 60.1127C5.19118 51.3824 5.82353 42.2353 9.05882 33.8725C12.2941 25.5098 17.9853 18.3186 25.3824 13.25C32.7794 8.18137 41.5392 5.46569 50.5098 5.46569C59.4804 5.46569 68.2353 8.18137 75.6373 13.25C83.0343 18.3186 88.7255 25.5098 91.9608 33.8725C95.1961 42.2353 95.8284 51.3824 93.7696 60.1127C91.7108 68.8431 87.0588 76.7451 80.4265 82.7794H80.4167Z" fill="url(#paint0_linear_90_68)"/>
<defs>
<linearGradient id="paint0_linear_90_68" x1="0.5" y1="50" x2="100.5" y2="50" gradientUnits="userSpaceOnUse">
<stop stop-color="#FFCB05"/>
<stop offset="0.25" stop-color="#EF4123"/>
<stop offset="0.5" stop-color="#812990"/>
<stop offset="0.75" stop-color="#2484C6"/>
<stop offset="1" stop-color="#00AE4D"/>
</linearGradient>
</defs>
</svg>
