<svg width="101" height="101" viewBox="0 0 101 101" fill="none" xmlns="http://www.w3.org/2000/svg">
<path d="M62.9334 40.0775C62.2439 40.1018 61.5933 40.3883 61.1175 40.8787L46.7312 55.489L40.7494 49.4536C40.2639 48.9195 39.5793 48.6039 38.8607 48.5844C38.1324 48.5553 37.4187 48.8418 36.904 49.3565C36.3845 49.8711 36.1029 50.5849 36.1175 51.3132C36.1369 52.0319 36.4476 52.7165 36.9769 53.2021L44.8473 61.1554C45.3523 61.6556 46.0175 61.9323 46.7263 61.9323H46.7409C47.4546 61.9275 48.1198 61.6459 48.6199 61.136L64.8949 44.6369C65.6718 43.8746 65.9048 42.6849 65.4727 41.6847C65.0406 40.6845 64.0161 40.0338 62.9285 40.0775H62.9334Z" fill="url(#paint0_linear_90_73)"/>
<path d="M50.9263 19.9464C33.8113 19.9464 19.8911 33.877 19.8911 50.9976C19.8911 68.1183 33.8113 82.0489 50.9263 82.0489C68.0412 82.0489 81.976 68.1183 81.976 50.9976C81.976 33.877 68.0461 19.9464 50.9263 19.9464V19.9464ZM76.6497 50.9976C76.6497 65.1855 65.1135 76.7223 50.9263 76.7223C36.739 76.7223 25.2028 65.1807 25.2028 50.9976C25.2028 36.8146 36.7439 25.2729 50.9263 25.2729C65.1086 25.2729 76.6497 36.8146 76.6497 50.9976Z" fill="url(#paint1_linear_90_73)"/>
<path d="M99.7221 47.2686C99.1152 46.1615 98.3481 45.0156 97.6101 43.9425C97.377 43.6026 97.144 43.2676 96.9158 42.9374C96.4157 42.2188 95.9447 41.539 95.5563 40.9321C95.0367 40.126 94.7017 39.422 94.658 39.3055C94.624 39.1404 94.5658 38.3586 94.6095 37.3972C94.6435 36.6689 94.7114 35.8337 94.7891 34.95C94.8231 34.5567 94.8571 34.1586 94.8862 33.7604C94.9882 32.464 95.0756 31.0899 95.0513 29.8323C95.027 28.6524 94.9979 27.322 94.2356 25.9964C93.4685 24.666 92.3323 23.9765 91.3273 23.3695C90.2494 22.7189 89.0113 22.112 87.8363 21.5487L87.511 21.3933C86.4283 20.8786 85.4087 20.3882 84.559 19.9512C83.685 19.4997 83.0441 19.0675 82.9567 18.9995C82.8499 18.8782 82.4129 18.2372 81.9662 17.3729C81.607 16.6786 81.2234 15.8629 80.8107 14.9986L80.3786 14.0906C79.8153 12.9155 79.2133 11.6774 78.5578 10.5995C77.9509 9.59435 77.2615 8.45816 75.9311 7.69098C74.6056 6.9238 73.2704 6.89952 72.0954 6.87525C70.8039 6.84611 69.391 6.94808 68.1675 7.04519L67.5363 7.09375C66.4438 7.18115 65.4096 7.25883 64.526 7.30253C63.584 7.34623 62.8412 7.30253 62.6372 7.26855C62.4479 7.19571 61.7779 6.86068 60.9864 6.3557C60.2193 5.86529 59.3405 5.25835 58.4083 4.61742L57.9616 4.31152C56.874 3.56376 55.7476 2.79659 54.6503 2.18964C53.4607 1.539 52.3634 0.995178 50.9117 0.995178C49.358 0.995178 48.2073 1.63126 47.1876 2.18964C46.1098 2.78202 44.9979 3.52977 43.8618 4.31637L43.1383 4.81164C42.3129 5.37974 41.5361 5.91385 40.8515 6.3557C40.0649 6.86068 39.3949 7.19571 39.2007 7.26855C38.9967 7.29768 38.2539 7.34623 37.3168 7.30253C36.438 7.25883 35.4038 7.18115 34.3162 7.09375L33.6802 7.04519C32.4566 6.94808 31.0486 6.85097 29.7522 6.87525C28.5724 6.89952 27.242 6.92866 25.9165 7.69098C24.5813 8.45816 23.8919 9.59921 23.285 10.5995C22.6441 11.658 22.0614 12.8573 21.4691 14.0906L21.0418 14.9937C20.634 15.858 20.2455 16.6737 19.8862 17.3681C19.4444 18.2275 19.0074 18.8684 18.9297 18.9558C18.8084 19.0578 18.1675 19.49 17.2935 19.9415C16.4778 20.364 15.5019 20.8301 14.4677 21.3205L14.0113 21.539C12.846 22.0974 11.6128 22.6946 10.5203 23.355C9.51529 23.9619 8.37915 24.6514 7.61201 25.9818C6.84487 27.3074 6.82059 28.6427 6.79631 29.8177C6.77204 31.0704 6.85943 32.4446 6.96139 33.7459C6.99053 34.1392 7.02451 34.5324 7.0585 34.916C7.13133 35.8095 7.20416 36.6543 7.23815 37.3875C7.2867 38.412 7.21387 39.1744 7.1993 39.252C7.1459 39.4026 6.80602 40.0969 6.2768 40.9272C5.83982 41.607 5.30573 42.379 4.74737 43.1947L4.23756 43.9328C3.49956 45.0059 2.73242 46.1566 2.1255 47.2588C1.56229 48.2882 0.921387 49.4535 0.921387 50.983C0.921387 52.5125 1.56229 53.6827 2.1255 54.7121C2.69358 55.7415 3.37817 56.7854 4.23756 58.0382L4.51432 58.4412C5.16493 59.388 5.78155 60.2863 6.2768 61.0632C6.80602 61.8886 7.1459 62.5878 7.18959 62.6946C7.22358 62.8549 7.28184 63.6317 7.23815 64.5834C7.20416 65.3069 7.13619 66.1323 7.06336 67.0112C7.02937 67.4094 6.99538 67.8124 6.96625 68.2202C6.86429 69.5167 6.77689 70.8956 6.80117 72.1629C6.82545 73.3331 6.85458 74.6587 7.61686 75.9843C8.384 77.3195 9.525 78.009 10.5252 78.616C11.6273 79.286 12.9092 79.9172 14.0162 80.4465L14.9484 80.8884C15.8029 81.2914 16.6089 81.675 17.2984 82.0294C18.1675 82.481 18.8132 82.9131 18.9006 82.986C19.0074 83.1073 19.4444 83.7483 19.8862 84.6077C20.2213 85.2535 20.5757 86.0158 20.9593 86.817C21.1292 87.1763 21.2991 87.5405 21.4739 87.8998C22.0371 89.0748 22.6392 90.313 23.2898 91.3909C24.0181 92.5902 24.6736 93.5662 25.9214 94.2897C27.2663 95.0666 28.6501 95.0957 29.7571 95.12C30.9369 95.1394 32.1799 95.0714 33.685 94.9549C34.054 94.9257 34.423 94.8966 34.7872 94.8675C35.7048 94.7898 36.5691 94.7218 37.3217 94.683C38.2636 94.6393 39.0064 94.683 39.2055 94.717C39.3949 94.7898 40.0649 95.12 40.8515 95.6298C41.4584 96.0182 42.1333 96.4892 42.8519 96.9894C43.182 97.2176 43.5219 97.4555 43.8618 97.6886C44.8717 98.3829 46.0564 99.1744 47.1876 99.7959C48.217 100.359 49.3823 101 50.9117 101C52.4411 101 53.6209 100.359 54.6503 99.7959C55.7767 99.1744 56.9517 98.3829 57.9664 97.6886L58.8744 97.0622C59.6367 96.5378 60.3553 96.0377 60.9913 95.6298C61.7779 95.1248 62.4479 94.7946 62.6372 94.717C62.8363 94.6878 63.584 94.6393 64.526 94.683C65.2688 94.717 66.1234 94.7898 67.0313 94.8626C67.4052 94.8918 67.7839 94.9257 68.1675 94.9549C69.4638 95.0568 70.833 95.1442 72.0905 95.12C73.1976 95.0957 74.5765 95.0666 75.9262 94.2897C77.2663 93.5176 77.9509 92.3863 78.553 91.3909C79.2133 90.2984 79.8153 89.07 80.3737 87.8998C80.5436 87.5453 80.7087 87.1909 80.8738 86.8413C81.2574 86.0255 81.6215 85.2583 81.9565 84.6029C82.3984 83.7434 82.8354 83.1073 82.913 83.0151C83.0344 82.9083 83.6753 82.4761 84.5493 82.0246C85.2436 81.6652 86.0544 81.2817 86.9187 80.8738L87.8266 80.4416C88.9919 79.8833 90.2251 79.2763 91.3176 78.6111C92.3226 78.0042 93.4588 77.3147 94.2259 75.9794C94.993 74.6538 95.0173 73.3283 95.0416 72.1581C95.0659 70.8859 94.9785 69.5118 94.8765 68.2154C94.8474 67.8172 94.8134 67.4239 94.7794 67.0306C94.7066 66.1421 94.6338 65.302 94.5998 64.5737C94.5512 63.5541 94.624 62.8014 94.6386 62.7238C94.692 62.5684 95.027 61.8643 95.5466 61.0535C95.969 60.3931 96.4885 59.6405 97.0371 58.849L97.6004 58.0333C98.4549 56.7854 99.1443 55.7415 99.7124 54.7072C100.276 53.6779 100.917 52.5125 100.917 50.983C100.917 49.4535 100.276 48.2882 99.7124 47.2588L99.7221 47.2686ZM89.3026 64.8408C89.3463 65.7585 89.4289 66.7539 89.5065 67.7153L89.5794 68.6378C89.6959 70.143 89.7396 71.2258 89.725 72.0513C89.7153 72.5999 89.6376 73.0612 89.5842 73.3137C89.39 73.4885 89.0307 73.7896 88.5598 74.0712C87.7926 74.5373 86.7973 75.0326 85.5349 75.6347L84.7629 76.0037C83.8695 76.4261 82.9519 76.868 82.1168 77.2953C81.102 77.8197 80.0533 78.3586 79.1793 79.2326C78.3442 80.0678 77.8247 81.0146 77.2323 82.1702C76.8536 82.9083 76.47 83.7191 76.101 84.5057C75.9311 84.8748 75.7563 85.2389 75.5815 85.6031C74.926 86.9724 74.4259 87.9338 74.0035 88.6281C73.7219 89.0991 73.4209 89.4584 73.2461 89.6526C72.9888 89.706 72.5324 89.7837 71.9837 89.7934C71.1583 89.8129 70.0756 89.7643 68.5802 89.6478C68.1723 89.6186 67.7645 89.5798 67.3566 89.5458C66.4972 89.473 65.6087 89.3953 64.7833 89.3564C63.4869 89.2933 62.4042 89.269 61.2632 89.5749C60.1465 89.876 59.258 90.4149 58.1218 91.1433C57.3401 91.6434 56.505 92.2212 55.6942 92.7796L54.961 93.2846C54.0919 93.8769 52.98 94.6247 52.0867 95.12C51.606 95.3822 51.1739 95.5473 50.9214 95.6298C50.6738 95.5473 50.2465 95.3822 49.7658 95.12C48.8676 94.6247 47.7557 93.8769 46.8866 93.2846L46.1486 92.7796C45.3426 92.2261 44.5075 91.6483 43.7307 91.1481C42.779 90.5363 41.7934 89.9051 40.5893 89.5798C39.8464 89.3807 39.1278 89.3224 38.3558 89.3224C37.948 89.3224 37.5207 89.337 37.0692 89.3613C36.2341 89.4001 35.331 89.4778 34.457 89.5507C34.0637 89.5846 33.6656 89.6186 33.2723 89.6478C31.7672 89.7643 30.6893 89.8129 29.8736 89.7934C29.325 89.7837 28.8637 89.706 28.6112 89.6526C28.4364 89.4584 28.1354 89.0942 27.8489 88.6233C27.4265 87.9289 26.9264 86.9675 26.271 85.5982C26.0962 85.2341 25.9262 84.8651 25.7514 84.496C25.3824 83.7094 25.0037 82.8986 24.625 82.1654C24.0327 81.0098 23.5083 80.0629 22.678 79.2278C21.8089 78.3586 20.7553 77.8148 19.7406 77.2904C18.9055 76.8583 17.9781 76.4213 17.0847 75.994L16.3224 75.6298C15.1814 75.0811 14.089 74.5519 13.2879 74.0663C12.8218 73.7847 12.4673 73.4836 12.278 73.3088C12.2246 73.0564 12.1469 72.5902 12.1323 72.0416C12.1129 70.9879 12.2051 69.5895 12.2828 68.6281L12.3605 67.6813C12.4382 66.7247 12.5159 65.7391 12.5596 64.8311C12.6178 63.6366 12.6712 62.5101 12.3508 61.3254C12.0303 60.1309 11.3894 59.1307 10.768 58.1693C10.297 57.4312 9.7532 56.6543 9.22883 55.8969C9.02976 55.6055 8.82583 55.3142 8.62677 55.0229C7.76738 53.7701 7.18474 52.8573 6.79631 52.1484C6.53413 51.6677 6.36905 51.2258 6.29136 50.983C6.36905 50.7354 6.53413 50.2984 6.79631 49.8177C7.31098 48.8854 8.08783 47.7298 8.62677 46.9384C8.82583 46.647 9.02976 46.3557 9.23368 46.0644C9.75805 45.3118 10.297 44.53 10.768 43.7968C11.4186 42.782 12.0352 41.8206 12.3459 40.6553C12.6615 39.4705 12.6081 38.3392 12.5547 37.1399C12.511 36.2319 12.4333 35.2414 12.3556 34.2897L12.278 33.3428C12.2051 32.3814 12.108 30.983 12.1274 29.9294C12.1372 29.3807 12.2197 28.9194 12.2731 28.6621C12.4673 28.4921 12.8218 28.196 13.2879 27.9143C14.1424 27.3948 15.3028 26.8267 16.3224 26.3363L17.0896 25.9721C17.983 25.5448 18.9103 25.1078 19.7454 24.6757C20.7602 24.1513 21.8089 23.6123 22.6829 22.7383C23.5132 21.908 24.0375 20.9563 24.6347 19.8007C25.0134 19.0675 25.3922 18.2615 25.7563 17.4798C25.9311 17.1059 26.1059 16.7369 26.2807 16.3678C26.6934 15.5036 27.3051 14.2557 27.8587 13.3428C28.1451 12.8718 28.4461 12.5174 28.6161 12.328C28.8637 12.2746 29.325 12.1921 29.8785 12.1775C30.8641 12.1581 32.1508 12.2503 33.2772 12.3377L34.224 12.4154C35.1805 12.4931 36.1661 12.5708 37.074 12.6145C38.2199 12.6679 39.4046 12.7262 40.5893 12.4057C41.7643 12.0901 42.7208 11.4783 43.7307 10.8277C44.5172 10.3227 45.3572 9.74488 46.168 9.18649L46.8915 8.69122C48.1441 7.83179 49.0569 7.24912 49.7658 6.86068C50.2416 6.59848 50.6738 6.43825 50.9214 6.3557C51.169 6.43339 51.606 6.59848 52.0867 6.86068C52.8004 7.25398 53.7132 7.83665 54.9659 8.69122L55.6747 9.18163C56.4904 9.74488 57.3352 10.3275 58.1218 10.8325C59.1366 11.4832 60.0979 12.0998 61.2632 12.4106C62.4479 12.7262 63.5792 12.6728 64.7833 12.6194C65.6912 12.5757 66.6769 12.498 67.6334 12.4203L68.5802 12.3426C69.7114 12.2552 70.9981 12.1629 71.9837 12.1824C72.5372 12.1921 72.9936 12.2746 73.2461 12.3329C73.4209 12.5222 73.7219 12.8816 74.0084 13.3477C74.4308 14.0469 74.9309 15.0083 75.5864 16.3727C75.766 16.7417 75.9408 17.1205 76.1156 17.4943C76.4797 18.2712 76.8585 19.0772 77.2372 19.8104C77.8344 20.966 78.3539 21.9129 79.1842 22.748C80.0533 23.6172 81.102 24.161 82.1216 24.6854C82.9567 25.1175 83.8792 25.5545 84.7678 25.977L85.5398 26.346C86.9041 27.0015 87.8655 27.5016 88.5646 27.924C89.0307 28.2057 89.3949 28.5019 89.5891 28.6767C89.6425 28.934 89.7202 29.3953 89.7299 29.9391C89.7493 30.7597 89.7008 31.8765 89.5842 33.3525L89.5114 34.2897C89.4337 35.2462 89.3512 36.2367 89.3123 37.1496C89.2589 38.2955 89.2007 39.4803 89.5211 40.665C89.8221 41.7818 90.3611 42.6752 91.0894 43.8065C91.5361 44.5009 92.0459 45.2341 92.5411 45.943C92.7742 46.278 93.0121 46.6131 93.2403 46.9529C93.7792 47.7395 94.5609 48.8952 95.0707 49.8323C95.3329 50.313 95.498 50.7548 95.5757 50.9976C95.498 51.2452 95.3329 51.6822 95.0707 52.1629C94.5561 53.0952 93.7792 54.2508 93.2403 55.0423C93.0024 55.387 92.7645 55.7318 92.5217 56.0765C92.0313 56.7757 91.5264 57.504 91.0845 58.1887C90.3805 59.2812 89.8221 60.2086 89.5163 61.3448C89.2007 62.5247 89.2541 63.656 89.3075 64.8505L89.3026 64.8408Z" fill="url(#paint2_linear_90_73)"/>
<defs>
<linearGradient id="paint0_linear_90_73" x1="36.1169" y1="51.0039" x2="65.6876" y2="51.0039" gradientUnits="userSpaceOnUse">
<stop stop-color="#FFCB05"/>
<stop offset="0.25" stop-color="#EF4123"/>
<stop offset="0.5" stop-color="#812990"/>
<stop offset="0.75" stop-color="#2484C6"/>
<stop offset="1" stop-color="#00AE4D"/>
</linearGradient>
<linearGradient id="paint1_linear_90_73" x1="19.8911" y1="50.9976" x2="81.976" y2="50.9976" gradientUnits="userSpaceOnUse">
<stop stop-color="#FFCB05"/>
<stop offset="0.25" stop-color="#EF4123"/>
<stop offset="0.5" stop-color="#812990"/>
<stop offset="0.75" stop-color="#2484C6"/>
<stop offset="1" stop-color="#00AE4D"/>
</linearGradient>
<linearGradient id="paint2_linear_90_73" x1="0.921387" y1="50.9976" x2="100.917" y2="50.9976" gradientUnits="userSpaceOnUse">
<stop stop-color="#FFCB05"/>
<stop offset="0.25" stop-color="#EF4123"/>
<stop offset="0.5" stop-color="#812990"/>
<stop offset="0.75" stop-color="#2484C6"/>
<stop offset="1" stop-color="#00AE4D"/>
</linearGradient>
</defs>
</svg>
